<svg width="35" height="35" viewBox="0 0 35 35" fill="none" xmlns="http://www.w3.org/2000/svg">
<path d="M17.5 32.0834C19.5121 32.0834 21.1441 30.4513 21.1441 28.4376H13.8559C13.8559 30.4513 15.488 32.0834 17.5 32.0834ZM29.77 23.555C28.6694 22.3724 26.61 20.5933 26.61 14.7657C26.61 10.3394 23.5065 6.79614 19.3218 5.92684V4.73966C19.3218 3.73307 18.506 2.91675 17.5 2.91675C16.494 2.91675 15.6782 3.73307 15.6782 4.73966V5.92684C11.4935 6.79614 8.38999 10.3394 8.38999 14.7657C8.38999 20.5933 6.33067 22.3724 5.23008 23.555C4.88828 23.9224 4.73675 24.3617 4.7396 24.7917C4.74587 25.726 5.47902 26.6147 6.56822 26.6147H28.4318C29.521 26.6147 30.2547 25.726 30.2604 24.7917C30.2633 24.3617 30.1118 23.9219 29.77 23.555Z" fill="#929292"/>
<ellipse cx="186.36" cy="153.257" rx="5.104" ry="5.104" fill="#005426"></ellipse>

</svg>
