<svg width="35" height="35" viewBox="0 0 35 35" fill="none" xmlns="http://www.w3.org/2000/svg">
<path d="M17.5002 32.0834C19.5122 32.0834 21.1443 30.4513 21.1443 28.4376H13.8561C13.8561 30.4513 15.4882 32.0834 17.5002 32.0834ZM29.7701 23.555C28.6696 22.3724 26.6102 20.5933 26.6102 14.7657C26.6102 10.3394 23.5067 6.79614 19.322 5.92684V4.73966C19.322 3.73307 18.5062 2.91675 17.5002 2.91675C16.4942 2.91675 15.6784 3.73307 15.6784 4.73966V5.92684C11.4937 6.79614 8.39018 10.3394 8.39018 14.7657C8.39018 20.5933 6.33085 22.3724 5.23026 23.555C4.88847 23.9224 4.73694 24.3617 4.73979 24.7917C4.74605 25.726 5.47921 26.6147 6.5684 26.6147H28.432C29.5212 26.6147 30.2549 25.726 30.2606 24.7917C30.2635 24.3617 30.1119 23.9219 29.7701 23.555Z" fill="#929292"/>
</svg>
