<svg width="20" height="20" viewBox="0 0 20 20" fill="none" xmlns="http://www.w3.org/2000/svg">
<path fill-rule="evenodd" clip-rule="evenodd" d="M2.61913 19.8872C2.79929 19.9207 2.98186 19.947 3.16606 19.9657C3.38991 19.9884 3.61689 20 3.84615 20C5.19518 20 6.45586 19.5979 7.5212 18.9027C8.31477 19.097 9.14543 19.2 10 19.2C15.4585 19.2 20 14.966 20 9.6C20 4.23397 15.4585 0 10 0C4.54153 0 0 4.23397 0 9.6C0 12.1691 1.05087 14.4929 2.74226 16.2052C2.98022 16.4461 3.02674 16.661 3.0033 16.7839C2.8744 17.4597 2.58141 18.0748 2.16776 18.5826C1.98991 18.8009 1.93771 19.1013 2.03085 19.3706C2.124 19.6398 2.34831 19.8368 2.61913 19.8872ZM6.15385 8.4C5.51659 8.4 5 8.93726 5 9.6C5 10.2627 5.51659 10.8 6.15385 10.8C6.7911 10.8 7.30769 10.2627 7.30769 9.6C7.30769 8.93726 6.7911 8.4 6.15385 8.4ZM8.84615 9.6C8.84615 8.93726 9.36275 8.4 10 8.4C10.6373 8.4 11.1538 8.93726 11.1538 9.6C11.1538 10.2627 10.6373 10.8 10 10.8C9.36275 10.8 8.84615 10.2627 8.84615 9.6ZM13.8462 8.4C13.2089 8.4 12.6923 8.93726 12.6923 9.6C12.6923 10.2627 13.2089 10.8 13.8462 10.8C14.4834 10.8 15 10.2627 15 9.6C15 8.93726 14.4834 8.4 13.8462 8.4Z" fill="black" fill-opacity="0.3"/>
</svg>
