<svg width="22" height="21" viewBox="0 0 22 21" fill="none" xmlns="http://www.w3.org/2000/svg">
<path fill-rule="evenodd" clip-rule="evenodd" d="M13.5358 1.75152C13.9067 1.3717 14.5138 1.31402 14.9863 1.61372L17.3263 3.09773C17.7989 3.39742 18.0055 3.97116 17.82 4.46853L17.1643 6.2268C17.7029 6.92136 18.1217 7.68529 18.4124 8.48542L20.3187 8.98295C20.8572 9.12351 21.2381 9.61138 21.2287 10.1486L21.1823 12.8087C21.1729 13.3459 20.7759 13.7831 20.2336 13.8532L18.3154 14.1014C18.1571 14.4781 17.9656 14.846 17.7401 15.2016C17.5146 15.5572 17.2634 15.8873 16.9901 16.1911L17.5834 18.0321C17.7511 18.5524 17.5249 19.098 17.043 19.3355L14.6566 20.5116C14.1746 20.7491 13.5709 20.6125 13.2142 20.1853L11.9515 18.6731C11.1038 18.7513 10.2342 18.6981 9.37628 18.507L8.06534 19.8497C7.69451 20.2295 7.08743 20.2872 6.61486 19.9875L4.27488 18.5035C3.80232 18.2038 3.59568 17.6301 3.78116 17.1327L4.43685 15.3744C3.89828 14.6799 3.47945 13.9159 3.18874 13.1158L1.28252 12.6183C0.743985 12.4777 0.363087 11.9899 0.372467 11.4527L0.418915 8.79257C0.428295 8.25536 0.825344 7.81818 1.36756 7.74803L3.28579 7.49987C3.44413 7.12315 3.6356 6.75522 3.86112 6.39963C4.08664 6.04403 4.33782 5.71398 4.61108 5.41015L4.01778 3.56918C3.85007 3.0488 4.07626 2.50326 4.5582 2.26575L6.94463 1.08968C7.42657 0.85217 8.03026 0.988729 8.387 1.41595L9.64971 2.92814C10.4974 2.84998 11.367 2.90316 12.2249 3.09423L13.5358 1.75152ZM9.01536 13.6156C10.6579 14.6573 12.7887 14.2414 13.7747 12.6868C14.7606 11.1321 14.2284 9.02734 12.5858 7.98565C10.9433 6.94397 8.8125 7.35982 7.82654 8.91448C6.84057 10.4691 7.37283 12.5739 9.01536 13.6156Z" fill="black" fill-opacity="0.3"/>
</svg>
