<svg width="22" height="22" viewBox="0 0 22 22" fill="none" xmlns="http://www.w3.org/2000/svg">
<path fill-rule="evenodd" clip-rule="evenodd" d="M10.1161 1.36612C10.6043 0.877961 11.3957 0.877961 11.8839 1.36612L20.6338 10.1161C20.9913 10.4736 21.0983 11.0113 20.9048 11.4784C20.7113 11.9454 20.2555 12.25 19.75 12.25H18.5V19.75C18.5 20.4404 17.9403 21 17.25 21H14.75C14.0596 21 13.5 20.4404 13.5 19.75V16C13.5 15.3096 12.9403 14.75 12.25 14.75H9.75C9.05965 14.75 8.50001 15.3096 8.50001 16V19.75C8.50001 20.4404 7.94037 21 7.25001 21H4.75002C4.05967 21 3.50003 20.4404 3.50003 19.75V12.25H2.25003C1.74446 12.25 1.28866 11.9454 1.09519 11.4784C0.901711 11.0113 1.00866 10.4736 1.36615 10.1161L10.1161 1.36612Z" fill="black" stroke="black" stroke-linecap="round" stroke-linejoin="round"/>
</svg>
