<svg width="22" height="22" viewBox="0 0 22 22" fill="none" xmlns="http://www.w3.org/2000/svg">
<path d="M11.0007 1.83301C5.94065 1.83301 1.83398 5.93967 1.83398 10.9997C1.83398 16.0597 5.94065 20.1663 11.0007 20.1663C16.0607 20.1663 20.1673 16.0597 20.1673 10.9997C20.1673 5.93967 16.0607 1.83301 11.0007 1.83301ZM10.0544 14.6959C9.56448 15.1858 8.77015 15.1858 8.28022 14.6959L5.23068 11.6464C4.87352 11.2892 4.87352 10.7101 5.23069 10.353V10.353C5.5875 9.99616 6.16588 9.99576 6.52318 10.3521L8.92355 12.7458C9.05824 12.8801 9.27625 12.8799 9.41074 12.7454L15.474 6.68218C15.8331 6.3231 16.4155 6.32413 16.7734 6.68447V6.68447C17.1294 7.04302 17.1283 7.62198 16.7711 7.97926L10.0544 14.6959Z" fill="#5A1EFF"/>
</svg>
