<svg width="35" height="35" viewBox="0 0 35 35" fill="none" xmlns="http://www.w3.org/2000/svg">
<path d="M17.5 32.0832C19.5121 32.0832 21.1441 30.4511 21.1441 28.4373H13.8559C13.8559 30.4511 15.488 32.0832 17.5 32.0832ZM29.77 23.5548C28.6694 22.3722 26.61 20.5931 26.61 14.7655C26.61 10.3392 23.5065 6.7959 19.3218 5.92659V4.73942C19.3218 3.73283 18.506 2.9165 17.5 2.9165C16.494 2.9165 15.6782 3.73283 15.6782 4.73942V5.92659C11.4935 6.7959 8.38999 10.3392 8.38999 14.7655C8.38999 20.5931 6.33067 22.3722 5.23008 23.5548C4.88828 23.9222 4.73675 24.3614 4.7396 24.7915C4.74587 25.7257 5.47902 26.6144 6.56822 26.6144H28.4318C29.521 26.6144 30.2547 25.7257 30.2604 24.7915C30.2633 24.3614 30.1118 23.9216 29.77 23.5548V23.5548Z" fill="#929292"/>
</svg>
