<svg width="22" height="23" viewBox="0 0 22 23" fill="none" xmlns="http://www.w3.org/2000/svg">
<path d="M11.1667 2.5C6.10667 2.5 2 6.60667 2 11.6667C2 16.7267 6.10667 20.8333 11.1667 20.8333C16.2267 20.8333 20.3333 16.7267 20.3333 11.6667C20.3333 6.60667 16.2267 2.5 11.1667 2.5Z" fill="#FB4E4E"/>
<path d="M12.1992 12.5064C12.1992 13.0587 11.7515 13.5064 11.1992 13.5064C10.6469 13.5064 10.1992 13.0587 10.1992 12.5064V7.5C10.1992 6.94772 10.6469 6.5 11.1992 6.5C11.7515 6.5 12.1992 6.94772 12.1992 7.5V12.5064Z" fill="white"/>
<path d="M12.1992 15.9989C12.1992 15.4466 11.7515 14.9979 11.1992 14.9979C10.6469 14.9979 10.1992 15.4466 10.1992 15.9989C10.1992 16.5512 10.6469 17 11.1992 17C11.7515 17 12.1992 16.5512 12.1992 15.9989Z" fill="white"/>
</svg>
