<svg width="16" height="17" viewBox="0 0 16 17" fill="none" xmlns="http://www.w3.org/2000/svg">
<g opacity="0.4">
<path d="M7.9987 1.83203C4.3187 1.83203 1.33203 4.8187 1.33203 8.4987C1.33203 12.1787 4.3187 15.1654 7.9987 15.1654C11.6787 15.1654 14.6654 12.1787 14.6654 8.4987C14.6654 4.8187 11.6787 1.83203 7.9987 1.83203Z" fill="#C8C8D2"/>
<path fill-rule="evenodd" clip-rule="evenodd" d="M5.10239 10.6388C4.84677 10.8944 4.84677 11.3089 5.10239 11.5645C5.358 11.8201 5.77244 11.8201 6.02806 11.5645L8.08416 9.50839L10.2631 11.6874C10.5187 11.943 10.9332 11.943 11.1888 11.6874C11.4444 11.4317 11.4444 11.0173 11.1888 10.7617L9.00982 8.58272L11.3417 6.25081C11.5974 5.99519 11.5974 5.58075 11.3417 5.32514C11.0861 5.06952 10.6717 5.06952 10.4161 5.32514L8.08416 7.65705L5.87511 5.44801C5.6195 5.1924 5.20506 5.1924 4.94945 5.44801C4.69383 5.70363 4.69383 6.11806 4.94945 6.37368L7.15849 8.58272L5.10239 10.6388Z" fill="white"/>
</g>
</svg>
